<?xml version="1.0" encoding="UTF-8"?>
<svg id="Capa_1" data-name="Capa 1" xmlns="http://www.w3.org/2000/svg" viewBox="0 0 419.9 471.48">
  <defs>
    <style>
      .cls-1 {
        fill: none;
        stroke: #53c932;
        stroke-linecap: round;
        stroke-linejoin: round;
        stroke-width: 20px;
      }

      .cls-2 {
        fill: #79c962;
      }
    </style>
  </defs>
  <path class="cls-1" d="m397.3,98.89c-8.4-17.5-19.8-30.4-34.2-38.6-1.1-.6-2.2-1.2-3.2-1.7l-2-1c-13.1-6.1-28-8.6-44.9-7.3h-.8c-19.5,1.6-40.3,8.8-62.5,21.6-19.1,11-37.3,25.1-54.4,42.2-2.7,2.7-5.4,5.5-8,8.3-2,2.2-4.1,4.4-6,6.7-13.5,15.2-25.8,31.4-36.7,48.6-2.8,4.4-5.5,8.8-8.2,13.4-7.7,13.4-14.6,27.1-20.6,41.2-5.2,12.1-9.7,24.4-13.6,36.9-2.5,8-4.6,15.8-6.3,23.7-4.2,18.9-6.3,37.3-6.3,55.3,0,25.4,4.2,46.9,12.6,64.4,1.5,3.1,3,6,4.7,8.7,7.8,13.1,17.6,23.1,29.5,29.9,14.4,8.2,31.4,11.5,50.9,9.9s40.3-8.8,62.4-21.6c22.2-12.8,43-29.6,62.5-50.6,19.5-20.9,36.5-43.7,50.9-68.6s25.8-50.9,34.2-78.1c8.4-27.2,12.6-53.5,12.6-79s-4.2-46.9-12.6-64.3h0Zm-146.7,285l-16.9-9.6,15.2-26.3c-8.2,4.5-16.4,7.6-24.3,9.1-1.8.4-3.6.7-5.3.9-9.6,1.1-18.3-.6-26.1-5-7.3-4.1-12.9-10.3-16.9-18.6-.3-.5-.5-1-.8-1.6-3.2-7.3-5.1-15.4-5.8-24.4-.1-1.6-.2-3.1-.2-4.7v-2c0-8.8,1.1-18.2,3.2-28,2-9,4.9-18.2,8.9-27.6.3-.8.7-1.7,1.1-2.5l17.6,10.1c-.3.8-.6,1.7-.8,2.5-1.7,5.3-3.1,10.4-4.1,15.5-1.2,5.9-1.8,11.4-1.8,16.7,0,4.9.5,9.4,1.6,13.7.7,2.7,1.6,5.3,2.6,7.8,2.8,6.3,6.9,11,12.2,14.1,5.6,3.2,11.9,4.3,19,3.3s14.3-3.8,21.8-8.4l-17.3-9.8,16.9-29,24.7,13.8,21,11.8-45.5,78.2Zm76-146.4c-2.2,9.8-5.5,19.9-10,30.2l-17.6-10.1c2.1-6.1,3.8-12.2,5-18v-.2c1.2-5.8,1.8-11.3,1.8-16.4,0-8-1.4-15.1-4.2-21.5-2.8-6.3-6.9-11-12.2-14.1-5.3-3.1-11.7-4-19.2-2.9s-14.8,3.7-22,7.9l17.6,10-16.8,29-10.9-6.1-17.8-10-16.9-9.4,16.2-27.8,5.1-8.6,8.4-14.4,10.7-18.3,5.3-9.2,16.8,9.6-15.2,26.7c10.1-5.9,20.1-9.4,29.8-10.8,9.8-1.4,18.5.2,26.3,4.6,7.7,4.4,13.5,11.2,17.4,20.5,3.9,9.2,5.8,19.7,5.8,31.4-.2,8.8-1.2,18.1-3.4,27.9h0Z"/>
  <path class="cls-2" d="m249,348.09c-8.2,4.5-16.4,7.6-24.3,9.1-1.8.4-3.6.7-5.3.9-9.6,1.1-18.3-.6-26.1-5-7.3-4.1-12.9-10.3-16.9-18.6-.3-.5-.5-1-.8-1.6-3.2-7.3-5.1-15.4-5.8-24.4l16.8,8.4,51.6,25.8,10.8,5.4Z"/>
  <path class="cls-2" d="m329.8,209.49c0,8.9-1,18.2-3.2,28-2.2,9.8-5.5,19.9-10,30.2l-17.6-10.1c2.1-6.1,3.8-12.2,5-18v-.2c1.2-5.8,1.8-11.3,1.8-16.4,0-8-1.4-15.1-4.2-21.5-2.8-6.3-6.9-11-12.2-14.1-5.3-3.1-11.7-4-19.2-2.9s-14.8,3.7-22,7.9l-.1-.1-22-11-6.6-3.3,5.1-8.6,8.4-14.4,17,8.5.6.3c10.1-5.9,20.1-9.4,29.8-10.8,9.8-1.4,18.5.2,26.3,4.6,7.7,4.4,13.5,11.2,17.4,20.5s5.7,19.7,5.7,31.4h0Z"/>
  <path class="cls-2" d="m296.2,305.59l-45.6,78.3-16.9-9.6,15.2-26.3-10.7-5.3-51.6-25.8-16.8-8.4c-.1-1.6-.2-3.1-.2-4.7l19.1,9.5,21.4,10.7c5.6,3.2,11.9,4.3,19,3.3s14.3-3.8,21.8-8.4l-17.3-9.8,16.9-29,24.7,13.8,21,11.7Z"/>
  <path class="cls-2" d="m210.1,324.09l-21.3-10.7-19.1-9.5v-2c0-8.8,1.1-18.2,3.2-28,2-9,4.9-18.2,8.9-27.6.3-.8.7-1.7,1.1-2.5l17.6,10.1c-.3.8-.6,1.7-.8,2.5-1.7,5.3-3.1,10.4-4.1,15.5-1.2,5.9-1.8,11.4-1.8,16.7,0,4.9.5,9.4,1.6,13.7.7,2.7,1.6,5.3,2.6,7.8,2.7,6.3,6.8,11,12.1,14Z"/>
  <path class="cls-2" d="m265.8,137.09l-15.2,26.7-.6-.3-17-8.5,10.7-18.3,5.3-9.2,16.8,9.6Z"/>
  <path class="cls-2" d="m265.8,202.39l-16.8,29-10.9-6.1-17.8-10-16.9-9.4,16.2-27.8,6.6,3.3,22,11,.1.1,17.5,9.9Z"/>
  <path class="cls-1" d="m357.9,57.59c-13.1-6.1-28-8.6-44.9-7.3h-.8c-19.5,1.6-40.3,8.8-62.5,21.6-19.1,11-37.3,25.1-54.4,42.2-2.7,2.7-5.4,5.5-8,8.3-2,2.2-4.1,4.4-6,6.7-13.5,15.2-25.8,31.4-36.7,48.6-2.8,4.4-5.5,8.8-8.2,13.4-7.7,13.4-14.6,27.1-20.6,41.2-5.2,12.1-9.7,24.4-13.6,36.9-2.5,8-4.6,15.8-6.3,23.7-4.2,18.9-6.3,37.3-6.3,55.3,0,25.4,4.2,46.9,12.6,64.4,1.5,3.1,3,6,4.7,8.7,7.8,13.1,17.6,23.1,29.5,29.9l-72.4-36.3-.2-.1c-2.4-1-4.7-2.2-7-3.5-14.4-8.2-25.8-21.1-34.2-38.6-8.4-17.5-12.6-39-12.6-64.4s4.2-51.8,12.6-79c8.4-27.2,19.8-53.3,34.2-78.1,14.4-24.9,31.4-47.7,50.9-68.6s40.3-37.8,62.4-50.6c22.2-12.8,43-20,62.5-21.6s36.5,1.7,50.9,9.9l74.4,37.3h0Z"/>
</svg>