<?xml version="1.0" encoding="UTF-8"?>
<svg id="Capa_1" data-name="Capa 1" xmlns="http://www.w3.org/2000/svg" viewBox="0 0 1433 845.95">
  <defs>
    <style>
      .cls-1 {
        fill-rule: evenodd;
      }

      .cls-1, .cls-2 {
        fill: #fff;
      }

      .cls-2 {
        font-family: RoundedMplus1c-ExtraBold, 'Rounded Mplus 1c';
        font-size: 700px;
        font-weight: 700;
      }

      .cls-3 {
        fill: #39b54a;
      }
    </style>
  </defs>
  <rect class="cls-3" y="3.17" width="710" height="700" rx="100" ry="100"/>
  <rect class="cls-3" x="710" y="3.17" width="723" height="700" rx="100" ry="100"/>
  <g>
    <path class="cls-1" d="m679.42,448.39c2.1-1.75,4.11-3.61,6.02-5.56-31.44-14.19-55.3-31.4-76.8-48.82-25.67-.06-52.14-6.57-65.68-23.2,20.19,10.1,41.43,10.15,48.59,9.19-60.69-54.45-77.49-107.69-77.49-107.69,20.77,32.36,42.7,57.37,64.17,77.23-8.99-17.09-3.73-48.7-3.73-48.7,17.5,61.23,19.55,62.21,18.4,62.74,14.23,11.45,29.64,22.21,42.48,30.43-4.62-10.68-7.89-26.25-7.46-52.92,0,0,11.41,55.96,29.34,69.73,14.27,8.18,26.84,14.53,36.58,19.35,15.43-22.87,15.51-83.85-22.31-108.35-40.75-26.42-109.47-27.43-178.98-95.01-20.79-20.22,17.85,157.66,73.82,207.25,34.4,30.55,79.17,42.43,113.04,14.33h0Z"/>
    <path class="cls-1" d="m663.15,446.24s18.65,9.63,40.06,19.02c21.4,9.39,31.66,7.49,32.87,9.82,1.23,2.36.62-25.79.62-25.79,0,0-28.9,6.8-61.07-10.93l-12.47,7.89h0Z"/>
  </g>
  <text class="cls-2" transform="translate(90.73 602)"><tspan x="0" y="0">E</tspan></text>
  <text class="cls-2" transform="translate(750.62 602.35)"><tspan x="0" y="0">M</tspan></text>
</svg>